<svg width="5996" height="4320" viewBox="0 0 5996 4320" fill="none" xmlns="http://www.w3.org/2000/svg">
<rect width="5996" height="4320" fill="white"/>
<rect x="80" y="84" width="5836" height="4152" stroke="black" stroke-width="8"/>
<line x1="78.0265" y1="90.5513" x2="5912.37" y2="3518.87" stroke="black" stroke-width="8"/>
<line x1="76" y1="3524" x2="5920" y2="3524" stroke="black" stroke-width="8"/>
<line x1="82.9721" y1="3524.55" x2="5916.23" y2="93.5775" stroke="black" stroke-width="8"/>
<line x1="3006" y1="3522" x2="3006" y2="4240" stroke="black" stroke-width="8"/>
<path d="M3319.43 1553.21C3310.57 1442.46 3152.74 1381 2952.72 1381L2946.06 1381L2916.6 1381C2799.92 1381 2536 1486.55 2536 1647.66C2536 1850.42 2674.91 1964.31 2758.25 2025.42C2841.59 2086.53 2736.02 2105.97 2799.92 2239.3C2861.46 2367.71 3252.75 2386.51 3291.65 2369.85C3330.54 2353.18 3319.43 2139.3 3319.43 2094.86C3319.43 2050.42 3450 2064.3 3450 2025.42C3450 1964.31 3304.34 1832.11 3291.65 1755.98C3277.76 1672.65 3336.1 1761.54 3319.43 1553.21Z" fill="black"/>
<path d="M2388.49 138.049C2388.49 142.229 2387.79 145.881 2386.38 149.006C2384.98 152.111 2382.99 154.484 2380.41 156.125C2377.83 157.766 2374.82 158.586 2371.38 158.586C2368.03 158.586 2365.05 157.766 2362.45 156.125C2359.85 154.465 2357.83 152.111 2356.38 149.064C2354.96 145.998 2354.23 142.453 2354.19 138.43V135.354C2354.19 131.252 2354.9 127.629 2356.33 124.484C2357.75 121.34 2359.76 118.938 2362.36 117.277C2364.98 115.598 2367.97 114.758 2371.33 114.758C2374.74 114.758 2377.75 115.588 2380.35 117.248C2382.97 118.889 2384.98 121.281 2386.38 124.426C2387.79 127.551 2388.49 131.193 2388.49 135.354V138.049ZM2382.9 135.295C2382.9 130.236 2381.88 126.359 2379.85 123.664C2377.82 120.949 2374.98 119.592 2371.33 119.592C2367.77 119.592 2364.97 120.949 2362.92 123.664C2360.89 126.359 2359.84 130.109 2359.78 134.914V138.049C2359.78 142.951 2360.81 146.809 2362.86 149.621C2364.93 152.414 2367.77 153.811 2371.38 153.811C2375.02 153.811 2377.83 152.492 2379.82 149.855C2381.81 147.199 2382.84 143.4 2382.9 138.459V135.295ZM2444.39 138.049C2444.39 142.17 2443.74 145.725 2442.43 148.713C2441.12 151.682 2439.29 154.006 2436.92 155.686L2444.54 161.662L2440.7 165.207L2431.71 158.059C2430.3 158.41 2428.82 158.586 2427.25 158.586C2423.89 158.586 2420.92 157.766 2418.32 156.125C2415.72 154.465 2413.7 152.111 2412.25 149.064C2410.83 145.998 2410.1 142.453 2410.06 138.43V135.354C2410.06 131.252 2410.77 127.629 2412.2 124.484C2413.62 121.34 2415.63 118.938 2418.23 117.277C2420.85 115.598 2423.84 114.758 2427.2 114.758C2430.63 114.758 2433.65 115.588 2436.25 117.248C2438.87 118.908 2440.88 121.301 2442.28 124.426C2443.69 127.531 2444.39 131.164 2444.39 135.324V138.049ZM2438.77 135.295C2438.77 130.275 2437.76 126.408 2435.75 123.693C2433.76 120.959 2430.91 119.592 2427.2 119.592C2423.66 119.592 2420.87 120.949 2418.82 123.664C2416.79 126.359 2415.74 130.109 2415.68 134.914V138.049C2415.68 142.932 2416.7 146.779 2418.73 149.592C2420.78 152.404 2423.62 153.811 2427.25 153.811C2430.89 153.811 2433.7 152.492 2435.69 149.855C2437.68 147.199 2438.71 143.4 2438.77 138.459V135.295ZM2483.09 115.344V144.348C2483.07 148.371 2481.8 151.662 2479.29 154.221C2476.79 156.779 2473.39 158.215 2469.09 158.527L2467.6 158.586C2462.93 158.586 2459.21 157.326 2456.43 154.807C2453.66 152.287 2452.25 148.82 2452.21 144.406V115.344H2457.78V144.23C2457.78 147.316 2458.63 149.719 2460.33 151.438C2462.03 153.137 2464.45 153.986 2467.6 153.986C2470.78 153.986 2473.21 153.137 2474.89 151.438C2476.59 149.738 2477.44 147.346 2477.44 144.26V115.344H2483.09ZM2516.08 138.283H2497.6V153.4H2519.07V158H2491.97V115.344H2518.78V119.973H2497.6V133.684H2516.08V138.283ZM2565.07 138.283H2546.58V153.4H2568.05V158H2540.96V115.344H2567.76V119.973H2546.58V133.684H2565.07V138.283ZM2580.71 153.4H2600.93V158H2575.06V115.344H2580.71V153.4ZM2631.45 138.283H2612.97V153.4H2634.44V158H2607.34V115.344H2634.15V119.973H2612.97V133.684H2631.45V138.283ZM2661.95 141.301V158H2656.33V115.344H2672.06C2676.73 115.344 2680.38 116.535 2683.02 118.918C2685.67 121.301 2687 124.455 2687 128.381C2687 132.521 2685.7 135.715 2683.1 137.961C2680.53 140.188 2676.82 141.301 2672 141.301H2661.95ZM2661.95 136.701H2672.06C2675.07 136.701 2677.37 135.998 2678.97 134.592C2680.57 133.166 2681.38 131.115 2681.38 128.439C2681.38 125.9 2680.57 123.869 2678.97 122.346C2677.37 120.822 2675.17 120.031 2672.38 119.973H2661.95V136.701ZM2718.29 138.283H2699.8V153.4H2721.28V158H2694.18V115.344H2720.98V119.973H2699.8V133.684H2718.29V138.283ZM2761.06 158H2755.41L2733.93 125.129V158H2728.28V115.344H2733.93L2755.47 148.361V115.344H2761.06V158ZM2783.62 138.986C2778.8 137.6 2775.28 135.9 2773.07 133.889C2770.89 131.857 2769.79 129.357 2769.79 126.389C2769.79 123.029 2771.13 120.256 2773.81 118.068C2776.5 115.861 2780 114.758 2784.29 114.758C2787.22 114.758 2789.83 115.324 2792.12 116.457C2794.42 117.59 2796.2 119.152 2797.45 121.145C2798.72 123.137 2799.35 125.314 2799.35 127.678H2793.7C2793.7 125.1 2792.88 123.078 2791.24 121.613C2789.6 120.129 2787.28 119.387 2784.29 119.387C2781.52 119.387 2779.35 120.002 2777.79 121.232C2776.25 122.443 2775.48 124.133 2775.48 126.301C2775.48 128.039 2776.21 129.514 2777.67 130.725C2779.16 131.916 2781.67 133.01 2785.2 134.006C2788.76 135.002 2791.53 136.105 2793.52 137.316C2795.54 138.508 2797.02 139.904 2797.98 141.506C2798.95 143.107 2799.44 144.992 2799.44 147.16C2799.44 150.617 2798.09 153.391 2795.4 155.48C2792.7 157.551 2789.1 158.586 2784.59 158.586C2781.66 158.586 2778.92 158.029 2776.38 156.916C2773.85 155.783 2771.88 154.24 2770.5 152.287C2769.13 150.334 2768.45 148.117 2768.45 145.637H2774.1C2774.1 148.215 2775.05 150.256 2776.94 151.76C2778.86 153.244 2781.4 153.986 2784.59 153.986C2787.56 153.986 2789.83 153.381 2791.41 152.17C2793 150.959 2793.79 149.309 2793.79 147.219C2793.79 145.129 2793.05 143.518 2791.59 142.385C2790.12 141.232 2787.47 140.1 2783.62 138.986ZM2830.23 146.867H2812.36L2808.35 158H2802.55L2818.84 115.344H2823.76L2840.08 158H2834.3L2830.23 146.867ZM2814.06 142.238H2828.56L2821.3 122.287L2814.06 142.238ZM2884.81 138.283H2866.33V153.4H2887.8V158H2860.7V115.344H2887.51V119.973H2866.33V133.684H2884.81V138.283ZM2922.25 138.986C2917.43 137.6 2913.91 135.9 2911.71 133.889C2909.52 131.857 2908.43 129.357 2908.43 126.389C2908.43 123.029 2909.76 120.256 2912.44 118.068C2915.13 115.861 2918.63 114.758 2922.93 114.758C2925.86 114.758 2928.46 115.324 2930.75 116.457C2933.05 117.59 2934.83 119.152 2936.08 121.145C2937.35 123.137 2937.99 125.314 2937.99 127.678H2932.33C2932.33 125.1 2931.51 123.078 2929.87 121.613C2928.23 120.129 2925.92 119.387 2922.93 119.387C2920.15 119.387 2917.99 120.002 2916.42 121.232C2914.88 122.443 2914.11 124.133 2914.11 126.301C2914.11 128.039 2914.84 129.514 2916.31 130.725C2917.79 131.916 2920.3 133.01 2923.84 134.006C2927.39 135.002 2930.16 136.105 2932.16 137.316C2934.17 138.508 2935.65 139.904 2936.61 141.506C2937.59 143.107 2938.07 144.992 2938.07 147.16C2938.07 150.617 2936.73 153.391 2934.03 155.48C2931.34 157.551 2927.73 158.586 2923.22 158.586C2920.29 158.586 2917.56 158.029 2915.02 156.916C2912.48 155.783 2910.52 154.24 2909.13 152.287C2907.76 150.334 2907.08 148.117 2907.08 145.637H2912.73C2912.73 148.215 2913.68 150.256 2915.57 151.76C2917.49 153.244 2920.04 153.986 2923.22 153.986C2926.19 153.986 2928.46 153.381 2930.05 152.17C2931.63 150.959 2932.42 149.309 2932.42 147.219C2932.42 145.129 2931.69 143.518 2930.22 142.385C2928.76 141.232 2926.1 140.1 2922.25 138.986ZM2969.42 138.283H2950.94V153.4H2972.41V158H2945.31V115.344H2972.12V119.973H2950.94V133.684H2969.42V138.283ZM3012.2 158H3006.54L2985.07 125.129V158H2979.41V115.344H2985.07L3006.6 148.361V115.344H3012.2V158ZM3050.78 119.973H3037.07V158H3031.47V119.973H3017.79V115.344H3050.78V119.973ZM3081.22 138.283H3062.73V153.4H3084.21V158H3057.11V115.344H3083.91V119.973H3062.73V133.684H3081.22V138.283ZM3118.66 138.986C3113.84 137.6 3110.32 135.9 3108.11 133.889C3105.93 131.857 3104.83 129.357 3104.83 126.389C3104.83 123.029 3106.17 120.256 3108.85 118.068C3111.54 115.861 3115.04 114.758 3119.33 114.758C3122.26 114.758 3124.87 115.324 3127.16 116.457C3129.46 117.59 3131.24 119.152 3132.49 121.145C3133.76 123.137 3134.39 125.314 3134.39 127.678H3128.74C3128.74 125.1 3127.92 123.078 3126.28 121.613C3124.64 120.129 3122.32 119.387 3119.33 119.387C3116.56 119.387 3114.39 120.002 3112.83 121.232C3111.29 122.443 3110.52 124.133 3110.52 126.301C3110.52 128.039 3111.25 129.514 3112.71 130.725C3114.2 131.916 3116.71 133.01 3120.24 134.006C3123.8 135.002 3126.57 136.105 3128.56 137.316C3130.57 138.508 3132.06 139.904 3133.02 141.506C3133.99 143.107 3134.48 144.992 3134.48 147.16C3134.48 150.617 3133.13 153.391 3130.44 155.48C3127.74 157.551 3124.14 158.586 3119.63 158.586C3116.7 158.586 3113.96 158.029 3111.42 156.916C3108.88 155.783 3106.92 154.24 3105.54 152.287C3104.17 150.334 3103.48 148.117 3103.48 145.637H3109.14C3109.14 148.215 3110.09 150.256 3111.98 151.76C3113.89 153.244 3116.44 153.986 3119.63 153.986C3122.6 153.986 3124.87 153.381 3126.45 152.17C3128.04 150.959 3128.83 149.309 3128.83 147.219C3128.83 145.129 3128.09 143.518 3126.63 142.385C3125.16 141.232 3122.51 140.1 3118.66 138.986ZM3174.53 138.049C3174.53 142.229 3173.83 145.881 3172.42 149.006C3171.01 152.111 3169.02 154.484 3166.44 156.125C3163.87 157.766 3160.86 158.586 3157.42 158.586C3154.06 158.586 3151.08 157.766 3148.48 156.125C3145.89 154.465 3143.87 152.111 3142.42 149.064C3140.99 145.998 3140.26 142.453 3140.22 138.43V135.354C3140.22 131.252 3140.94 127.629 3142.36 124.484C3143.79 121.34 3145.8 118.938 3148.4 117.277C3151.01 115.598 3154 114.758 3157.36 114.758C3160.78 114.758 3163.79 115.588 3166.38 117.248C3169 118.889 3171.01 121.281 3172.42 124.426C3173.83 127.551 3174.53 131.193 3174.53 135.354V138.049ZM3168.93 135.295C3168.93 130.236 3167.92 126.359 3165.89 123.664C3163.86 120.949 3161.01 119.592 3157.36 119.592C3153.81 119.592 3151 120.949 3148.95 123.664C3146.92 126.359 3145.88 130.109 3145.82 134.914V138.049C3145.82 142.951 3146.84 146.809 3148.89 149.621C3150.96 152.414 3153.81 153.811 3157.42 153.811C3161.05 153.811 3163.87 152.492 3165.86 149.855C3167.85 147.199 3168.88 143.4 3168.93 138.459V135.295ZM3182.97 158V115.344H3196.91C3201.54 115.344 3205.02 116.301 3207.34 118.215C3209.69 120.129 3210.86 122.961 3210.86 126.711C3210.86 128.703 3210.29 130.471 3209.16 132.014C3208.03 133.537 3206.48 134.719 3204.53 135.559C3206.83 136.203 3208.65 137.434 3209.98 139.25C3211.33 141.047 3212 143.195 3212 145.695C3212 149.523 3210.76 152.531 3208.28 154.719C3205.8 156.906 3202.29 158 3197.76 158H3182.97ZM3188.59 138.049V153.4H3197.88C3200.5 153.4 3202.56 152.727 3204.06 151.379C3205.58 150.012 3206.35 148.137 3206.35 145.754C3206.35 140.617 3203.55 138.049 3197.97 138.049H3188.59ZM3188.59 133.537H3197.09C3199.55 133.537 3201.51 132.922 3202.98 131.691C3204.46 130.461 3205.2 128.791 3205.2 126.682C3205.2 124.338 3204.52 122.639 3203.15 121.584C3201.79 120.51 3199.71 119.973 3196.91 119.973H3188.59V133.537ZM3235.99 140.744H3225.97V158H3220.32V115.344H3234.44C3239.25 115.344 3242.94 116.438 3245.52 118.625C3248.11 120.812 3249.41 123.996 3249.41 128.176C3249.41 130.832 3248.69 133.146 3247.24 135.119C3245.82 137.092 3243.83 138.566 3241.27 139.543L3251.29 157.648V158H3245.25L3235.99 140.744ZM3225.97 136.145H3234.62C3237.41 136.145 3239.63 135.422 3241.27 133.977C3242.93 132.531 3243.76 130.598 3243.76 128.176C3243.76 125.539 3242.97 123.518 3241.38 122.111C3239.82 120.705 3237.56 119.992 3234.59 119.973H3225.97V136.145ZM3281.43 138.283H3262.95V153.4H3284.42V158H3257.32V115.344H3284.13V119.973H3262.95V133.684H3281.43V138.283ZM3339.12 138.049C3339.12 142.229 3338.42 145.881 3337.01 149.006C3335.6 152.111 3333.61 154.484 3331.03 156.125C3328.46 157.766 3325.45 158.586 3322.01 158.586C3318.65 158.586 3315.67 157.766 3313.07 156.125C3310.48 154.465 3308.46 152.111 3307.01 149.064C3305.58 145.998 3304.85 142.453 3304.81 138.43V135.354C3304.81 131.252 3305.53 127.629 3306.95 124.484C3308.38 121.34 3310.39 118.938 3312.99 117.277C3315.6 115.598 3318.59 114.758 3321.95 114.758C3325.37 114.758 3328.38 115.588 3330.97 117.248C3333.59 118.889 3335.6 121.281 3337.01 124.426C3338.42 127.551 3339.12 131.193 3339.12 135.354V138.049ZM3333.52 135.295C3333.52 130.236 3332.51 126.359 3330.48 123.664C3328.45 120.949 3325.6 119.592 3321.95 119.592C3318.4 119.592 3315.59 120.949 3313.54 123.664C3311.51 126.359 3310.47 130.109 3310.41 134.914V138.049C3310.41 142.951 3311.43 146.809 3313.48 149.621C3315.55 152.414 3318.4 153.811 3322.01 153.811C3325.64 153.811 3328.46 152.492 3330.45 149.855C3332.44 147.199 3333.46 143.4 3333.52 138.459V135.295ZM3385.99 146.867H3368.12L3364.11 158H3358.31L3374.6 115.344H3379.52L3395.84 158H3390.07L3385.99 146.867ZM3369.82 142.238H3384.32L3377.06 122.287L3369.82 142.238ZM3414.15 138.986C3409.32 137.6 3405.81 135.9 3403.6 133.889C3401.41 131.857 3400.32 129.357 3400.32 126.389C3400.32 123.029 3401.66 120.256 3404.33 118.068C3407.03 115.861 3410.53 114.758 3414.82 114.758C3417.75 114.758 3420.36 115.324 3422.64 116.457C3424.95 117.59 3426.73 119.152 3427.98 121.145C3429.25 123.137 3429.88 125.314 3429.88 127.678H3424.23C3424.23 125.1 3423.41 123.078 3421.77 121.613C3420.12 120.129 3417.81 119.387 3414.82 119.387C3412.05 119.387 3409.88 120.002 3408.32 121.232C3406.78 122.443 3406 124.133 3406 126.301C3406 128.039 3406.74 129.514 3408.2 130.725C3409.69 131.916 3412.2 133.01 3415.73 134.006C3419.29 135.002 3422.06 136.105 3424.05 137.316C3426.06 138.508 3427.55 139.904 3428.5 141.506C3429.48 143.107 3429.97 144.992 3429.97 147.16C3429.97 150.617 3428.62 153.391 3425.93 155.48C3423.23 157.551 3419.63 158.586 3415.12 158.586C3412.19 158.586 3409.45 158.029 3406.91 156.916C3404.37 155.783 3402.41 154.24 3401.02 152.287C3399.66 150.334 3398.97 148.117 3398.97 145.637H3404.63C3404.63 148.215 3405.57 150.256 3407.47 151.76C3409.38 153.244 3411.93 153.986 3415.12 153.986C3418.08 153.986 3420.36 153.381 3421.94 152.17C3423.52 150.959 3424.31 149.309 3424.31 147.219C3424.31 145.129 3423.58 143.518 3422.12 142.385C3420.65 141.232 3418 140.1 3414.15 138.986ZM3449.77 138.986C3444.95 137.6 3441.43 135.9 3439.23 133.889C3437.04 131.857 3435.95 129.357 3435.95 126.389C3435.95 123.029 3437.28 120.256 3439.96 118.068C3442.65 115.861 3446.15 114.758 3450.45 114.758C3453.38 114.758 3455.98 115.324 3458.27 116.457C3460.57 117.59 3462.35 119.152 3463.6 121.145C3464.87 123.137 3465.51 125.314 3465.51 127.678H3459.85C3459.85 125.1 3459.03 123.078 3457.39 121.613C3455.75 120.129 3453.44 119.387 3450.45 119.387C3447.67 119.387 3445.51 120.002 3443.94 121.232C3442.4 122.443 3441.63 124.133 3441.63 126.301C3441.63 128.039 3442.36 129.514 3443.83 130.725C3445.31 131.916 3447.82 133.01 3451.36 134.006C3454.91 135.002 3457.68 136.105 3459.68 137.316C3461.69 138.508 3463.17 139.904 3464.13 141.506C3465.11 143.107 3465.59 144.992 3465.59 147.16C3465.59 150.617 3464.25 153.391 3461.55 155.48C3458.86 157.551 3455.25 158.586 3450.74 158.586C3447.81 158.586 3445.08 158.029 3442.54 156.916C3440 155.783 3438.04 154.24 3436.65 152.287C3435.28 150.334 3434.6 148.117 3434.6 145.637H3440.25C3440.25 148.215 3441.2 150.256 3443.09 151.76C3445.01 153.244 3447.56 153.986 3450.74 153.986C3453.71 153.986 3455.98 153.381 3457.57 152.17C3459.15 150.959 3459.94 149.309 3459.94 147.219C3459.94 145.129 3459.21 143.518 3457.74 142.385C3456.28 141.232 3453.62 140.1 3449.77 138.986ZM3502.86 115.344V144.348C3502.84 148.371 3501.57 151.662 3499.05 154.221C3496.55 156.779 3493.15 158.215 3488.86 158.527L3487.36 158.586C3482.69 158.586 3478.97 157.326 3476.2 154.807C3473.43 152.287 3472.02 148.82 3471.98 144.406V115.344H3477.55V144.23C3477.55 147.316 3478.4 149.719 3480.1 151.438C3481.79 153.137 3484.22 153.986 3487.36 153.986C3490.54 153.986 3492.98 153.137 3494.66 151.438C3496.36 149.738 3497.21 147.346 3497.21 144.26V115.344H3502.86ZM3544.52 158H3538.87L3517.39 125.129V158H3511.74V115.344H3517.39L3538.92 148.361V115.344H3544.52V158ZM3583.1 119.973H3569.39V158H3563.8V119.973H3550.12V115.344H3583.1V119.973ZM3621.42 138.049C3621.42 142.229 3620.72 145.881 3619.31 149.006C3617.91 152.111 3615.92 154.484 3613.34 156.125C3610.76 157.766 3607.75 158.586 3604.31 158.586C3600.96 158.586 3597.98 157.766 3595.38 156.125C3592.78 154.465 3590.76 152.111 3589.31 149.064C3587.89 145.998 3587.16 142.453 3587.12 138.43V135.354C3587.12 131.252 3587.83 127.629 3589.26 124.484C3590.68 121.34 3592.69 118.938 3595.29 117.277C3597.91 115.598 3600.9 114.758 3604.26 114.758C3607.67 114.758 3610.68 115.588 3613.28 117.248C3615.9 118.889 3617.91 121.281 3619.31 124.426C3620.72 127.551 3621.42 131.193 3621.42 135.354V138.049ZM3615.83 135.295C3615.83 130.236 3614.81 126.359 3612.78 123.664C3610.75 120.949 3607.91 119.592 3604.26 119.592C3600.7 119.592 3597.9 120.949 3595.85 123.664C3593.82 126.359 3592.77 130.109 3592.71 134.914V138.049C3592.71 142.951 3593.74 146.809 3595.79 149.621C3597.86 152.414 3600.7 153.811 3604.31 153.811C3607.95 153.811 3610.76 152.492 3612.75 149.855C3614.74 147.199 3615.77 143.4 3615.83 138.459V135.295ZM3635.37 145.988C3635.41 143.664 3635.67 141.828 3636.16 140.48C3636.65 139.133 3637.64 137.639 3639.15 135.998L3642.99 132.043C3644.63 130.188 3645.45 128.195 3645.45 126.066C3645.45 124.016 3644.91 122.414 3643.84 121.262C3642.76 120.09 3641.2 119.504 3639.15 119.504C3637.16 119.504 3635.55 120.031 3634.34 121.086C3633.13 122.141 3632.53 123.557 3632.53 125.334H3627.11C3627.15 122.17 3628.27 119.621 3630.48 117.688C3632.7 115.734 3635.59 114.758 3639.15 114.758C3642.84 114.758 3645.71 115.754 3647.76 117.746C3649.83 119.719 3650.87 122.434 3650.87 125.891C3650.87 129.309 3649.29 132.678 3646.12 135.998L3642.93 139.162C3641.5 140.744 3640.79 143.02 3640.79 145.988H3635.37ZM3635.13 155.275C3635.13 154.396 3635.4 153.664 3635.93 153.078C3636.47 152.473 3637.27 152.17 3638.33 152.17C3639.38 152.17 3640.18 152.473 3640.73 153.078C3641.28 153.664 3641.55 154.396 3641.55 155.275C3641.55 156.154 3641.28 156.887 3640.73 157.473C3640.18 158.039 3639.38 158.322 3638.33 158.322C3637.27 158.322 3636.47 158.039 3635.93 157.473C3635.4 156.887 3635.13 156.154 3635.13 155.275Z" fill="black"/>
<path d="M2722.04 3473.05C2722.04 3477.23 2721.34 3480.88 2719.93 3484.01C2718.52 3487.11 2716.53 3489.48 2713.95 3491.12C2711.38 3492.77 2708.37 3493.59 2704.93 3493.59C2701.57 3493.59 2698.59 3492.77 2695.99 3491.12C2693.4 3489.46 2691.38 3487.11 2689.93 3484.06C2688.5 3481 2687.77 3477.45 2687.73 3473.43V3470.35C2687.73 3466.25 2688.45 3462.63 2689.87 3459.48C2691.3 3456.34 2693.31 3453.94 2695.91 3452.28C2698.52 3450.6 2701.51 3449.76 2704.87 3449.76C2708.29 3449.76 2711.3 3450.59 2713.89 3452.25C2716.51 3453.89 2718.52 3456.28 2719.93 3459.43C2721.34 3462.55 2722.04 3466.19 2722.04 3470.35V3473.05ZM2716.44 3470.29C2716.44 3465.24 2715.43 3461.36 2713.4 3458.66C2711.37 3455.95 2708.52 3454.59 2704.87 3454.59C2701.32 3454.59 2698.51 3455.95 2696.46 3458.66C2694.43 3461.36 2693.39 3465.11 2693.33 3469.91V3473.05C2693.33 3477.95 2694.35 3481.81 2696.4 3484.62C2698.47 3487.41 2701.32 3488.81 2704.93 3488.81C2708.56 3488.81 2711.38 3487.49 2713.37 3484.86C2715.36 3482.2 2716.38 3478.4 2716.44 3473.46V3470.29ZM2777.94 3473.05C2777.94 3477.17 2777.28 3480.72 2775.97 3483.71C2774.67 3486.68 2772.83 3489.01 2770.47 3490.69L2778.08 3496.66L2774.25 3500.21L2765.25 3493.06C2763.85 3493.41 2762.36 3493.59 2760.8 3493.59C2757.44 3493.59 2754.46 3492.77 2751.86 3491.12C2749.27 3489.46 2747.24 3487.11 2745.8 3484.06C2744.37 3481 2743.64 3477.45 2743.6 3473.43V3470.35C2743.6 3466.25 2744.31 3462.63 2745.74 3459.48C2747.17 3456.34 2749.18 3453.94 2751.78 3452.28C2754.39 3450.6 2757.38 3449.76 2760.74 3449.76C2764.18 3449.76 2767.2 3450.59 2769.79 3452.25C2772.41 3453.91 2774.42 3456.3 2775.83 3459.43C2777.23 3462.53 2777.94 3466.16 2777.94 3470.32V3473.05ZM2772.31 3470.29C2772.31 3465.28 2771.31 3461.41 2769.29 3458.69C2767.3 3455.96 2764.45 3454.59 2760.74 3454.59C2757.21 3454.59 2754.41 3455.95 2752.36 3458.66C2750.33 3461.36 2749.29 3465.11 2749.23 3469.91V3473.05C2749.23 3477.93 2750.24 3481.78 2752.27 3484.59C2754.32 3487.4 2757.17 3488.81 2760.8 3488.81C2764.43 3488.81 2767.24 3487.49 2769.24 3484.86C2771.23 3482.2 2772.25 3478.4 2772.31 3473.46V3470.29ZM2816.64 3450.34V3479.35C2816.62 3483.37 2815.35 3486.66 2812.83 3489.22C2810.33 3491.78 2806.93 3493.21 2802.63 3493.53L2801.14 3493.59C2796.47 3493.59 2792.75 3492.33 2789.98 3489.81C2787.21 3487.29 2785.8 3483.82 2785.76 3479.41V3450.34H2791.33V3479.23C2791.33 3482.32 2792.18 3484.72 2793.88 3486.44C2795.57 3488.14 2798 3488.99 2801.14 3488.99C2804.32 3488.99 2806.76 3488.14 2808.44 3486.44C2810.13 3484.74 2810.98 3482.35 2810.98 3479.26V3450.34H2816.64ZM2849.63 3473.28H2831.14V3488.4H2852.62V3493H2825.52V3450.34H2852.32V3454.97H2831.14V3468.68H2849.63V3473.28ZM2898.61 3473.28H2880.12V3488.4H2901.6V3493H2874.5V3450.34H2901.31V3454.97H2880.12V3468.68H2898.61V3473.28ZM2914.26 3488.4H2934.47V3493H2908.6V3450.34H2914.26V3488.4ZM2965 3473.28H2946.51V3488.4H2967.99V3493H2940.89V3450.34H2967.69V3454.97H2946.51V3468.68H2965V3473.28ZM3013.4 3474.16H2995.5V3493H2989.87V3450.34H3016.3V3454.97H2995.5V3469.56H3013.4V3474.16ZM3041.61 3481.87H3023.74L3019.72 3493H3013.92L3030.21 3450.34H3035.13L3051.45 3493H3045.68L3041.61 3481.87ZM3025.44 3477.24H3039.94L3032.67 3457.29L3025.44 3477.24ZM3062.85 3488.4H3083.06V3493H3057.2V3450.34H3062.85V3488.4ZM3113.62 3481.87H3095.75L3091.74 3493H3085.94L3102.22 3450.34H3107.15L3123.46 3493H3117.69L3113.62 3481.87ZM3097.45 3477.24H3111.95L3104.69 3457.29L3097.45 3477.24ZM3168.2 3473.28H3149.71V3488.4H3171.19V3493H3144.09V3450.34H3170.9V3454.97H3149.71V3468.68H3168.2V3473.28ZM3216.6 3474.16H3198.7V3493H3193.07V3450.34H3219.5V3454.97H3198.7V3469.56H3216.6V3474.16ZM3244.81 3481.87H3226.94L3222.93 3493H3217.13L3233.42 3450.34H3238.34L3254.66 3493H3248.88L3244.81 3481.87ZM3228.64 3477.24H3243.14L3235.88 3457.29L3228.64 3477.24ZM3264.62 3488.4H3289.02V3493H3257.97V3488.78L3281.35 3454.97H3258.35V3450.34H3288.08V3454.47L3264.62 3488.4ZM3301.82 3480.99C3301.86 3478.66 3302.13 3476.83 3302.62 3475.48C3303.1 3474.13 3304.1 3472.64 3305.6 3471L3309.44 3467.04C3311.08 3465.19 3311.9 3463.2 3311.9 3461.07C3311.9 3459.02 3311.37 3457.41 3310.29 3456.26C3309.22 3455.09 3307.65 3454.5 3305.6 3454.5C3303.61 3454.5 3302.01 3455.03 3300.8 3456.09C3299.59 3457.14 3298.98 3458.56 3298.98 3460.33H3293.56C3293.6 3457.17 3294.72 3454.62 3296.93 3452.69C3299.16 3450.73 3302.05 3449.76 3305.6 3449.76C3309.29 3449.76 3312.17 3450.75 3314.22 3452.75C3316.29 3454.72 3317.32 3457.43 3317.32 3460.89C3317.32 3464.31 3315.74 3467.68 3312.58 3471L3309.38 3474.16C3307.96 3475.74 3307.24 3478.02 3307.24 3480.99H3301.82ZM3301.59 3490.28C3301.59 3489.4 3301.85 3488.66 3302.38 3488.08C3302.93 3487.47 3303.73 3487.17 3304.78 3487.17C3305.84 3487.17 3306.64 3487.47 3307.19 3488.08C3307.73 3488.66 3308.01 3489.4 3308.01 3490.28C3308.01 3491.15 3307.73 3491.89 3307.19 3492.47C3306.64 3493.04 3305.84 3493.32 3304.78 3493.32C3303.73 3493.32 3302.93 3493.04 3302.38 3492.47C3301.85 3491.89 3301.59 3491.15 3301.59 3490.28Z" fill="black"/>
<path d="M105.951 3597V3554.34H117.992C121.703 3554.34 124.984 3555.16 127.836 3556.8C130.688 3558.45 132.885 3560.78 134.428 3563.81C135.99 3566.83 136.781 3570.31 136.801 3574.24V3576.96C136.801 3580.98 136.02 3584.51 134.457 3587.54C132.914 3590.56 130.697 3592.89 127.807 3594.51C124.936 3596.13 121.586 3596.96 117.758 3597H105.951ZM111.576 3558.97V3592.4H117.494C121.83 3592.4 125.199 3591.05 127.602 3588.36C130.023 3585.66 131.234 3581.82 131.234 3576.84V3574.35C131.234 3569.51 130.092 3565.75 127.807 3563.07C125.541 3560.38 122.318 3559.01 118.139 3558.97H111.576ZM178.139 3577.05C178.139 3581.23 177.436 3584.88 176.029 3588.01C174.623 3591.11 172.631 3593.48 170.053 3595.12C167.475 3596.77 164.467 3597.59 161.029 3597.59C157.67 3597.59 154.691 3596.77 152.094 3595.12C149.496 3593.46 147.475 3591.11 146.029 3588.06C144.604 3585 143.871 3581.45 143.832 3577.43V3574.35C143.832 3570.25 144.545 3566.63 145.971 3563.48C147.396 3560.34 149.408 3557.94 152.006 3556.28C154.623 3554.6 157.611 3553.76 160.971 3553.76C164.389 3553.76 167.396 3554.59 169.994 3556.25C172.611 3557.89 174.623 3560.28 176.029 3563.43C177.436 3566.55 178.139 3570.19 178.139 3574.35V3577.05ZM172.543 3574.29C172.543 3569.24 171.527 3565.36 169.496 3562.66C167.465 3559.95 164.623 3558.59 160.971 3558.59C157.416 3558.59 154.613 3559.95 152.562 3562.66C150.531 3565.36 149.486 3569.11 149.428 3573.91V3577.05C149.428 3581.95 150.453 3585.81 152.504 3588.62C154.574 3591.41 157.416 3592.81 161.029 3592.81C164.662 3592.81 167.475 3591.49 169.467 3588.86C171.459 3586.2 172.484 3582.4 172.543 3577.46V3574.29ZM202.221 3579.74H192.201V3597H186.547V3554.34H200.668C205.473 3554.34 209.164 3555.44 211.742 3557.62C214.34 3559.81 215.639 3563 215.639 3567.18C215.639 3569.83 214.916 3572.15 213.471 3574.12C212.045 3576.09 210.053 3577.57 207.494 3578.54L217.514 3596.65V3597H211.479L202.221 3579.74ZM192.201 3575.14H200.844C203.637 3575.14 205.854 3574.42 207.494 3572.98C209.154 3571.53 209.984 3569.6 209.984 3567.18C209.984 3564.54 209.193 3562.52 207.611 3561.11C206.049 3559.71 203.783 3558.99 200.814 3558.97H192.201V3575.14ZM247.66 3577.28H229.174V3592.4H250.648V3597H223.549V3554.34H250.355V3558.97H229.174V3572.68H247.66V3577.28ZM270.219 3577.99C265.395 3576.6 261.879 3574.9 259.672 3572.89C257.484 3570.86 256.391 3568.36 256.391 3565.39C256.391 3562.03 257.729 3559.26 260.404 3557.07C263.1 3554.86 266.596 3553.76 270.893 3553.76C273.822 3553.76 276.43 3554.32 278.715 3555.46C281.02 3556.59 282.797 3558.15 284.047 3560.14C285.316 3562.14 285.951 3564.31 285.951 3566.68H280.297C280.297 3564.1 279.477 3562.08 277.836 3560.61C276.195 3559.13 273.881 3558.39 270.893 3558.39C268.119 3558.39 265.951 3559 264.389 3560.23C262.846 3561.44 262.074 3563.13 262.074 3565.3C262.074 3567.04 262.807 3568.51 264.271 3569.72C265.756 3570.92 268.266 3572.01 271.801 3573.01C275.355 3574 278.129 3575.11 280.121 3576.32C282.133 3577.51 283.617 3578.9 284.574 3580.51C285.551 3582.11 286.039 3583.99 286.039 3586.16C286.039 3589.62 284.691 3592.39 281.996 3594.48C279.301 3596.55 275.697 3597.59 271.186 3597.59C268.256 3597.59 265.521 3597.03 262.982 3595.92C260.443 3594.78 258.48 3593.24 257.094 3591.29C255.727 3589.33 255.043 3587.12 255.043 3584.64H260.697C260.697 3587.21 261.645 3589.26 263.539 3590.76C265.453 3592.24 268.002 3592.99 271.186 3592.99C274.154 3592.99 276.43 3592.38 278.012 3591.17C279.594 3589.96 280.385 3588.31 280.385 3586.22C280.385 3584.13 279.652 3582.52 278.188 3581.38C276.723 3580.23 274.066 3579.1 270.219 3577.99Z" fill="black"/>
<path d="M5650.77 3596V3553.34H5662.81C5666.52 3553.34 5669.8 3554.16 5672.65 3555.8C5675.5 3557.45 5677.7 3559.78 5679.24 3562.81C5680.81 3565.83 5681.6 3569.31 5681.62 3573.24V3575.96C5681.62 3579.98 5680.84 3583.51 5679.27 3586.54C5677.73 3589.56 5675.51 3591.89 5672.62 3593.51C5669.75 3595.13 5666.4 3595.96 5662.57 3596H5650.77ZM5656.39 3557.97V3591.4H5662.31C5666.65 3591.4 5670.02 3590.05 5672.42 3587.36C5674.84 3584.66 5676.05 3580.82 5676.05 3575.84V3573.35C5676.05 3568.51 5674.91 3564.75 5672.62 3562.07C5670.36 3559.38 5667.13 3558.01 5662.96 3557.97H5656.39ZM5714.25 3576.28H5695.77V3591.4H5717.24V3596H5690.14V3553.34H5716.95V3557.97H5695.77V3571.68H5714.25V3576.28ZM5736.81 3576.99C5731.99 3575.6 5728.47 3573.9 5726.27 3571.89C5724.08 3569.86 5722.98 3567.36 5722.98 3564.39C5722.98 3561.03 5724.32 3558.26 5727 3556.07C5729.69 3553.86 5733.19 3552.76 5737.49 3552.76C5740.42 3552.76 5743.02 3553.32 5745.31 3554.46C5747.61 3555.59 5749.39 3557.15 5750.64 3559.14C5751.91 3561.14 5752.54 3563.31 5752.54 3565.68H5746.89C5746.89 3563.1 5746.07 3561.08 5744.43 3559.61C5742.79 3558.13 5740.47 3557.39 5737.49 3557.39C5734.71 3557.39 5732.54 3558 5730.98 3559.23C5729.44 3560.44 5728.67 3562.13 5728.67 3564.3C5728.67 3566.04 5729.4 3567.51 5730.87 3568.72C5732.35 3569.92 5734.86 3571.01 5738.39 3572.01C5741.95 3573 5744.72 3574.11 5746.71 3575.32C5748.73 3576.51 5750.21 3577.9 5751.17 3579.51C5752.14 3581.11 5752.63 3582.99 5752.63 3585.16C5752.63 3588.62 5751.29 3591.39 5748.59 3593.48C5745.89 3595.55 5742.29 3596.59 5737.78 3596.59C5734.85 3596.59 5732.12 3596.03 5729.58 3594.92C5727.04 3593.78 5725.07 3592.24 5723.69 3590.29C5722.32 3588.33 5721.64 3586.12 5721.64 3583.64H5727.29C5727.29 3586.21 5728.24 3588.26 5730.13 3589.76C5732.05 3591.24 5734.6 3591.99 5737.78 3591.99C5740.75 3591.99 5743.02 3591.38 5744.61 3590.17C5746.19 3588.96 5746.98 3587.31 5746.98 3585.22C5746.98 3583.13 5746.25 3581.52 5744.78 3580.38C5743.32 3579.23 5740.66 3578.1 5736.81 3576.99ZM5783.98 3576.28H5765.49V3591.4H5786.97V3596H5759.87V3553.34H5786.68V3557.97H5765.49V3571.68H5783.98V3576.28ZM5811.84 3553.34H5817.5V3583.55C5817.5 3587.63 5816.27 3590.82 5813.8 3593.13C5811.36 3595.43 5808.1 3596.59 5804.02 3596.59C5799.78 3596.59 5796.48 3595.5 5794.12 3593.33C5791.75 3591.17 5790.57 3588.13 5790.57 3584.22H5796.2C5796.2 3586.66 5796.86 3588.57 5798.19 3589.94C5799.54 3591.3 5801.48 3591.99 5804.02 3591.99C5806.34 3591.99 5808.22 3591.25 5809.64 3589.79C5811.09 3588.32 5811.82 3586.27 5811.84 3583.64V3553.34ZM5859.89 3576.05C5859.89 3580.23 5859.19 3583.88 5857.78 3587.01C5856.37 3590.11 5854.38 3592.48 5851.8 3594.12C5849.22 3595.77 5846.22 3596.59 5842.78 3596.59C5839.42 3596.59 5836.44 3595.77 5833.84 3594.12C5831.25 3592.46 5829.22 3590.11 5827.78 3587.06C5826.35 3584 5825.62 3580.45 5825.58 3576.43V3573.35C5825.58 3569.25 5826.29 3565.63 5827.72 3562.48C5829.15 3559.34 5831.16 3556.94 5833.76 3555.28C5836.37 3553.6 5839.36 3552.76 5842.72 3552.76C5846.14 3552.76 5849.15 3553.59 5851.74 3555.25C5854.36 3556.89 5856.37 3559.28 5857.78 3562.43C5859.19 3565.55 5859.89 3569.19 5859.89 3573.35V3576.05ZM5854.29 3573.29C5854.29 3568.24 5853.28 3564.36 5851.25 3561.66C5849.21 3558.95 5846.37 3557.59 5842.72 3557.59C5839.17 3557.59 5836.36 3558.95 5834.31 3561.66C5832.28 3564.36 5831.24 3568.11 5831.18 3572.91V3576.05C5831.18 3580.95 5832.2 3584.81 5834.25 3587.62C5836.32 3590.41 5839.17 3591.81 5842.78 3591.81C5846.41 3591.81 5849.22 3590.49 5851.22 3587.86C5853.21 3585.2 5854.23 3581.4 5854.29 3576.46V3573.29ZM5880.89 3576.99C5876.07 3575.6 5872.55 3573.9 5870.35 3571.89C5868.16 3569.86 5867.07 3567.36 5867.07 3564.39C5867.07 3561.03 5868.4 3558.26 5871.08 3556.07C5873.78 3553.86 5877.27 3552.76 5881.57 3552.76C5884.5 3552.76 5887.11 3553.32 5889.39 3554.46C5891.7 3555.59 5893.47 3557.15 5894.72 3559.14C5895.99 3561.14 5896.63 3563.31 5896.63 3565.68H5890.97C5890.97 3563.1 5890.15 3561.08 5888.51 3559.61C5886.87 3558.13 5884.56 3557.39 5881.57 3557.39C5878.79 3557.39 5876.63 3558 5875.06 3559.23C5873.52 3560.44 5872.75 3562.13 5872.75 3564.3C5872.75 3566.04 5873.48 3567.51 5874.95 3568.72C5876.43 3569.92 5878.94 3571.01 5882.48 3572.01C5886.03 3573 5888.8 3574.11 5890.8 3575.32C5892.81 3576.51 5894.29 3577.9 5895.25 3579.51C5896.23 3581.11 5896.71 3582.99 5896.71 3585.16C5896.71 3588.62 5895.37 3591.39 5892.67 3593.48C5889.98 3595.55 5886.37 3596.59 5881.86 3596.59C5878.93 3596.59 5876.2 3596.03 5873.66 3594.92C5871.12 3593.78 5869.16 3592.24 5867.77 3590.29C5866.4 3588.33 5865.72 3586.12 5865.72 3583.64H5871.37C5871.37 3586.21 5872.32 3588.26 5874.21 3589.76C5876.13 3591.24 5878.68 3591.99 5881.86 3591.99C5884.83 3591.99 5887.11 3591.38 5888.69 3590.17C5890.27 3588.96 5891.06 3587.31 5891.06 3585.22C5891.06 3583.13 5890.33 3581.52 5888.86 3580.38C5887.4 3579.23 5884.74 3578.1 5880.89 3576.99Z" fill="black"/>
<path d="M141.049 1959.97C145.228 1959.97 148.881 1960.67 152.006 1962.08C155.111 1963.48 157.484 1965.48 159.125 1968.05C160.766 1970.63 161.586 1973.64 161.586 1977.08C161.586 1980.44 160.766 1983.42 159.125 1986.01C157.465 1988.61 155.111 1990.63 152.064 1992.08C148.998 1993.5 145.453 1994.24 141.43 1994.28L138.353 1994.28C134.252 1994.28 130.629 1993.56 127.484 1992.14C124.34 1990.71 121.937 1988.7 120.277 1986.1C118.598 1983.48 117.758 1980.5 117.758 1977.14C117.758 1973.72 118.588 1970.71 120.248 1968.11C121.889 1965.5 124.281 1963.48 127.426 1962.08C130.551 1960.67 134.193 1959.97 138.353 1959.97L141.049 1959.97ZM138.295 1965.56C133.236 1965.56 129.359 1966.58 126.664 1968.61C123.949 1970.64 122.592 1973.48 122.592 1977.14C122.592 1980.69 123.949 1983.49 126.664 1985.54C129.359 1987.58 133.109 1988.62 137.914 1988.68L141.049 1988.68C145.951 1988.68 149.809 1987.65 152.621 1985.6C155.414 1983.53 156.811 1980.69 156.811 1977.08C156.811 1973.45 155.492 1970.63 152.855 1968.64C150.199 1966.65 146.4 1965.62 141.459 1965.56L138.295 1965.56ZM141.049 1904.07C145.17 1904.07 148.725 1904.72 151.713 1906.03C154.682 1907.34 157.006 1909.18 158.686 1911.54L164.662 1903.92L168.207 1907.76L161.059 1916.76C161.41 1918.16 161.586 1919.65 161.586 1921.21C161.586 1924.57 160.766 1927.55 159.125 1930.14C157.465 1932.74 155.111 1934.76 152.064 1936.21C148.998 1937.63 145.453 1938.37 141.43 1938.41L138.353 1938.41C134.252 1938.41 130.629 1937.69 127.484 1936.27C124.34 1934.84 121.937 1932.83 120.277 1930.23C118.598 1927.62 117.758 1924.63 117.758 1921.27C117.758 1917.83 118.588 1914.81 120.248 1912.21C121.908 1909.6 124.301 1907.59 127.426 1906.18C130.531 1904.77 134.164 1904.07 138.324 1904.07L141.049 1904.07ZM138.295 1909.7C133.275 1909.7 129.408 1910.7 126.693 1912.71C123.959 1914.71 122.592 1917.56 122.592 1921.27C122.592 1924.8 123.949 1927.6 126.664 1929.65C129.359 1931.68 133.109 1932.72 137.914 1932.78L141.049 1932.78C145.932 1932.78 149.779 1931.77 152.592 1929.73C155.404 1927.68 156.811 1924.84 156.811 1921.21C156.811 1917.58 155.492 1914.76 152.855 1912.77C150.199 1910.78 146.4 1909.75 141.459 1909.7L138.295 1909.7ZM118.344 1865.37L147.348 1865.37C151.371 1865.39 154.662 1866.66 157.221 1869.18C159.779 1871.68 161.215 1875.08 161.527 1879.37L161.586 1880.87C161.586 1885.54 160.326 1889.26 157.807 1892.03C155.287 1894.8 151.82 1896.21 147.406 1896.25L118.344 1896.25L118.344 1890.68L147.23 1890.68C150.316 1890.68 152.719 1889.83 154.437 1888.13C156.137 1886.43 156.986 1884.01 156.986 1880.87C156.986 1877.68 156.137 1875.25 154.437 1873.57C152.738 1871.87 150.346 1871.02 147.26 1871.02L118.344 1871.02L118.344 1865.37ZM141.283 1832.38L141.283 1850.87L156.4 1850.87L156.4 1829.39L161 1829.39L161 1856.49L118.344 1856.49L118.344 1829.69L122.973 1829.69L122.973 1850.87L136.684 1850.87L136.684 1832.38L141.283 1832.38ZM141.283 1783.4L141.283 1801.88L156.4 1801.88L156.4 1780.41L161 1780.41L161 1807.51L118.344 1807.51L118.344 1780.7L122.973 1780.7L122.973 1801.88L136.684 1801.88L136.684 1783.4L141.283 1783.4ZM156.4 1767.75L156.4 1747.54L161 1747.54L161 1773.41L118.344 1773.41L118.344 1767.75L156.4 1767.75ZM141.283 1717.01L141.283 1735.5L156.4 1735.5L156.4 1714.02L161 1714.02L161 1741.12L118.344 1741.12L118.344 1714.31L122.973 1714.31L122.973 1735.5L136.684 1735.5L136.684 1717.01L141.283 1717.01ZM141.049 1659.32C145.228 1659.32 148.881 1660.03 152.006 1661.43C155.111 1662.84 157.484 1664.83 159.125 1667.41C160.766 1669.99 161.586 1673 161.586 1676.43C161.586 1679.79 160.766 1682.77 159.125 1685.37C157.465 1687.97 155.111 1689.99 152.064 1691.43C148.998 1692.86 145.453 1693.59 141.43 1693.63L138.353 1693.63C134.252 1693.63 130.629 1692.92 127.484 1691.49C124.34 1690.07 121.937 1688.05 120.277 1685.46C118.598 1682.84 117.758 1679.85 117.758 1676.49C117.758 1673.07 118.588 1670.07 120.248 1667.47C121.889 1664.85 124.281 1662.84 127.426 1661.43C130.551 1660.03 134.193 1659.32 138.353 1659.32L141.049 1659.32ZM138.295 1664.92C133.236 1664.92 129.359 1665.94 126.664 1667.97C123.949 1670 122.592 1672.84 122.592 1676.49C122.592 1680.05 123.949 1682.85 126.664 1684.9C129.359 1686.93 133.109 1687.98 137.914 1688.04L141.049 1688.04C145.951 1688.04 149.809 1687.01 152.621 1684.96C155.414 1682.89 156.811 1680.05 156.811 1676.43C156.811 1672.8 155.492 1669.99 152.855 1668C150.199 1666 146.4 1664.98 141.459 1664.92L138.295 1664.92ZM118.344 1620.86L147.348 1620.86C151.371 1620.88 154.662 1622.15 157.221 1624.67C159.779 1627.17 161.215 1630.56 161.527 1634.86L161.586 1636.36C161.586 1641.02 160.326 1644.74 157.807 1647.52C155.287 1650.29 151.82 1651.7 147.406 1651.74L118.344 1651.74L118.344 1646.17L147.23 1646.17C150.316 1646.17 152.719 1645.32 154.437 1643.62C156.137 1641.92 156.986 1639.5 156.986 1636.36C156.986 1633.17 156.137 1630.74 154.437 1629.06C152.738 1627.36 150.346 1626.51 147.26 1626.51L118.344 1626.51L118.344 1620.86ZM153.529 1597.86L118.344 1585.67L118.344 1579.52L161 1595.34L161 1600.32L118.344 1616.11L118.344 1609.99L153.529 1597.86ZM141.283 1549.67L141.283 1568.15L156.4 1568.15L156.4 1546.68L161 1546.68L161 1573.78L118.344 1573.78L118.344 1546.97L122.973 1546.97L122.973 1568.15L136.684 1568.15L136.684 1549.67L141.283 1549.67ZM148.988 1534.17C146.664 1534.13 144.828 1533.87 143.48 1533.38C142.133 1532.89 140.639 1531.89 138.998 1530.39L135.043 1526.55C133.187 1524.91 131.195 1524.09 129.066 1524.09C127.016 1524.09 125.414 1524.63 124.262 1525.7C123.09 1526.78 122.504 1528.34 122.504 1530.39C122.504 1532.38 123.031 1533.98 124.086 1535.19C125.141 1536.4 126.557 1537.01 128.334 1537.01L128.334 1542.43C125.17 1542.39 122.621 1541.27 120.687 1539.06C118.734 1536.83 117.758 1533.94 117.758 1530.39C117.758 1526.7 118.754 1523.83 120.746 1521.78C122.719 1519.71 125.434 1518.67 128.891 1518.67C132.309 1518.67 135.678 1520.25 138.998 1523.42L142.162 1526.61C143.744 1528.04 146.019 1528.75 148.988 1528.75L148.988 1534.17ZM158.275 1534.4C157.396 1534.4 156.664 1534.14 156.078 1533.61C155.473 1533.06 155.17 1532.26 155.17 1531.21C155.17 1530.15 155.473 1529.35 156.078 1528.81C156.664 1528.26 157.396 1527.99 158.275 1527.99C159.154 1527.99 159.887 1528.26 160.473 1528.81C161.039 1529.35 161.322 1530.15 161.322 1531.21C161.322 1532.26 161.039 1533.06 160.473 1533.61C159.887 1534.14 159.154 1534.4 158.275 1534.4Z" fill="black"/>
<path d="M5861.95 1645.11C5857.77 1645.11 5854.12 1644.41 5850.99 1643C5847.89 1641.59 5845.52 1639.6 5843.87 1637.02C5842.23 1634.45 5841.41 1631.44 5841.41 1628C5841.41 1624.64 5842.23 1621.66 5843.87 1619.06C5845.54 1616.47 5847.89 1614.45 5850.94 1613C5854 1611.57 5857.55 1610.84 5861.57 1610.8L5864.65 1610.8C5868.75 1610.8 5872.37 1611.52 5875.52 1612.94C5878.66 1614.37 5881.06 1616.38 5882.72 1618.98C5884.4 1621.59 5885.24 1624.58 5885.24 1627.94C5885.24 1631.36 5884.41 1634.37 5882.75 1636.96C5881.11 1639.58 5878.72 1641.59 5875.57 1643C5872.45 1644.41 5868.81 1645.11 5864.65 1645.11L5861.95 1645.11ZM5864.71 1639.51C5869.76 1639.51 5873.64 1638.5 5876.34 1636.47C5879.05 1634.44 5880.41 1631.59 5880.41 1627.94C5880.41 1624.39 5879.05 1621.58 5876.34 1619.53C5873.64 1617.5 5869.89 1616.46 5865.09 1616.4L5861.95 1616.4C5857.05 1616.4 5853.19 1617.42 5850.38 1619.47C5847.59 1621.54 5846.19 1624.39 5846.19 1628C5846.19 1631.63 5847.51 1634.45 5850.14 1636.44C5852.8 1638.43 5856.6 1639.46 5861.54 1639.51L5864.71 1639.51ZM5861.95 1701.01C5857.83 1701.01 5854.28 1700.35 5851.29 1699.04C5848.32 1697.74 5845.99 1695.9 5844.31 1693.54L5838.34 1701.15L5834.79 1697.32L5841.94 1688.32C5841.59 1686.92 5841.41 1685.43 5841.41 1683.87C5841.41 1680.51 5842.23 1677.53 5843.87 1674.93C5845.54 1672.34 5847.89 1670.31 5850.94 1668.87C5854 1667.44 5857.55 1666.71 5861.57 1666.67L5864.65 1666.67C5868.75 1666.67 5872.37 1667.38 5875.52 1668.81C5878.66 1670.24 5881.06 1672.25 5882.72 1674.85C5884.4 1677.46 5885.24 1680.45 5885.24 1683.81C5885.24 1687.25 5884.41 1690.27 5882.75 1692.86C5881.09 1695.48 5878.7 1697.49 5875.57 1698.9C5872.47 1700.3 5868.84 1701.01 5864.68 1701.01L5861.95 1701.01ZM5864.71 1695.38C5869.72 1695.38 5873.59 1694.38 5876.31 1692.37C5879.04 1690.37 5880.41 1687.52 5880.41 1683.81C5880.41 1680.28 5879.05 1677.48 5876.34 1675.43C5873.64 1673.4 5869.89 1672.36 5865.09 1672.3L5861.95 1672.3C5857.07 1672.3 5853.22 1673.31 5850.41 1675.34C5847.6 1677.39 5846.19 1680.24 5846.19 1683.87C5846.19 1687.5 5847.51 1690.31 5850.14 1692.31C5852.8 1694.3 5856.6 1695.32 5861.54 1695.38L5864.71 1695.38ZM5884.66 1739.71L5855.65 1739.71C5851.63 1739.69 5848.34 1738.42 5845.78 1735.9C5843.22 1733.4 5841.79 1730 5841.47 1725.71L5841.41 1724.21C5841.41 1719.54 5842.67 1715.82 5845.19 1713.05C5847.71 1710.28 5851.18 1708.87 5855.59 1708.83L5884.66 1708.83L5884.66 1714.4L5855.77 1714.4C5852.68 1714.4 5850.28 1715.25 5848.56 1716.95C5846.86 1718.64 5846.01 1721.07 5846.01 1724.21C5846.01 1727.39 5846.86 1729.83 5848.56 1731.51C5850.26 1733.21 5852.65 1734.05 5855.74 1734.05L5884.66 1734.05L5884.66 1739.71ZM5861.72 1772.7L5861.72 1754.21L5846.6 1754.21L5846.6 1775.69L5842 1775.69L5842 1748.59L5884.66 1748.59L5884.66 1775.39L5880.03 1775.39L5880.03 1754.21L5866.32 1754.21L5866.32 1772.7L5861.72 1772.7ZM5861.72 1821.68L5861.72 1803.2L5846.6 1803.2L5846.6 1824.67L5842 1824.67L5842 1797.57L5884.66 1797.57L5884.66 1824.38L5880.03 1824.38L5880.03 1803.2L5866.32 1803.2L5866.32 1821.68L5861.72 1821.68ZM5846.6 1837.33L5846.6 1857.54L5842 1857.54L5842 1831.67L5884.66 1831.67L5884.66 1837.33L5846.6 1837.33ZM5861.72 1888.07L5861.72 1869.58L5846.6 1869.58L5846.6 1891.06L5842 1891.06L5842 1863.96L5884.66 1863.96L5884.66 1890.76L5880.03 1890.76L5880.03 1869.58L5866.32 1869.58L5866.32 1888.07L5861.72 1888.07ZM5849.47 1927.06L5884.66 1939.25L5884.66 1945.4L5842 1929.58L5842 1924.6L5884.66 1908.81L5884.66 1914.93L5849.47 1927.06ZM5861.72 1975.26L5861.72 1956.77L5846.6 1956.77L5846.6 1978.24L5842 1978.24L5842 1951.14L5884.66 1951.14L5884.66 1977.95L5880.03 1977.95L5880.03 1956.77L5866.32 1956.77L5866.32 1975.26L5861.72 1975.26ZM5888.41 1973.21L5888.11 1973.21L5888.11 1968.72L5893.09 1964.33L5888.11 1959.96L5888.11 1955.48L5888.46 1955.48L5896.43 1962.69L5896.43 1965.97L5888.41 1973.21ZM5854.01 1990.75C5856.34 1990.79 5858.17 1991.06 5859.52 1991.54C5860.87 1992.03 5862.36 1993.03 5864 1994.53L5867.96 1998.37C5869.81 2000.01 5871.8 2000.83 5873.93 2000.83C5875.98 2000.83 5877.59 2000.29 5878.74 1999.22C5879.91 1998.15 5880.5 1996.58 5880.5 1994.53C5880.5 1992.54 5879.97 1990.94 5878.91 1989.73C5877.86 1988.52 5876.44 1987.91 5874.67 1987.91L5874.67 1982.49C5877.83 1982.53 5880.38 1983.65 5882.31 1985.86C5884.27 1988.09 5885.24 1990.98 5885.24 1994.53C5885.24 1998.22 5884.25 2001.1 5882.25 2003.15C5880.28 2005.22 5877.57 2006.25 5874.11 2006.25C5870.69 2006.25 5867.32 2004.67 5864 2001.51L5860.84 1998.31C5859.26 1996.89 5856.98 1996.17 5854.01 1996.17L5854.01 1990.75ZM5844.72 1990.52C5845.6 1990.52 5846.34 1990.78 5846.92 1991.31C5847.53 1991.86 5847.83 1992.66 5847.83 1993.71C5847.83 1994.77 5847.53 1995.57 5846.92 1996.12C5846.34 1996.66 5845.6 1996.94 5844.72 1996.94C5843.85 1996.94 5843.11 1996.66 5842.53 1996.12C5841.96 1995.57 5841.68 1994.77 5841.68 1993.71C5841.68 1992.66 5841.96 1991.86 5842.53 1991.31C5843.11 1990.78 5843.85 1990.52 5844.72 1990.52Z" fill="black"/>
</svg>
